<?xml version="1.0" encoding="iso-8859-1"?>
<!-- Generator: Adobe Illustrator 19.0.0, SVG Export Plug-In . SVG Version: 6.00 Build 0)  -->
<svg version="1.1" id="Capa_1" xmlns="http://www.w3.org/2000/svg" xmlns:xlink="http://www.w3.org/1999/xlink" x="0px" y="0px"
	 viewBox="0 0 496 496" style="enable-background:new 0 0 496 496;" xml:space="preserve">
<path style="fill:#00AE65;" d="M0,304v65.6C0,396.8,21.6,416,48,416h400c26.4,0,48-19.2,48-46.4V304H0z"/>
<path style="fill:#0098C3;" d="M448,80H48C21.6,80,0,99.2,0,126.4V192h496v-65.6C496,99.2,474.4,80,448,80z"/>
<rect y="192" style="fill:#E00034;" width="496" height="112"/>
<path style="fill:#00914F;" d="M446.4,416c26.4,0,49.6-19.2,49.6-46.4V304H315.2L446.4,416z"/>
<path style="fill:#0088A8;" d="M448,80H48l132,112h316v-65.6C496,99.2,474.4,80,448,80z"/>
<polygon style="fill:#CC0539;" points="315.2,304 496,304 496,192 180,192 "/>
<path style="fill:#027689;" d="M448,80H48l370.4,112H496v-65.6C496,99.2,474.4,80,448,80z"/>
<polygon style="fill:#BA023B;" points="496,214.4 496,192 414.4,192 "/>
<path style="fill:#007C41;" d="M496,368.8c0,29.6-21.6,47.2-48,47.2H48c-26.4,0-48-20.8-48-48"/>
<path style="fill:#FFFFFF;" d="M242.4,285.6c-20.8,0-37.6-16.8-37.6-37.6s16.8-37.6,37.6-37.6c11.2,0,20.8,4.8,28,12.8
	c-8-12-21.6-20-37.6-20c-24.8,0-45.6,20-45.6,45.6c0,24.8,20,45.6,45.6,45.6c16,0,29.6-8,37.6-20C264,280.8,253.6,285.6,242.4,285.6
	z"/>
<g>
	<path style="fill:#DBDDDC;" d="M232.8,202.4c-10.4,0-20.8,3.2-28,9.6l11.2,8.8c6.4-6.4,16.8-11.2,27.2-11.2
		c11.2,0,20.8,4.8,28,12.8C262.4,210.4,248.8,202.4,232.8,202.4z"/>
	<polygon style="fill:#DBDDDC;" points="308.8,248 295.2,243.2 300.8,230.4 288,236 283.2,223.2 278.4,236 265.6,230.4 272,243.2 
		258.4,248 272,252.8 265.6,265.6 278.4,260 283.2,272.8 288,260 300.8,265.6 295.2,252.8 	"/>
</g>
<g>
</g>
<g>
</g>
<g>
</g>
<g>
</g>
<g>
</g>
<g>
</g>
<g>
</g>
<g>
</g>
<g>
</g>
<g>
</g>
<g>
</g>
<g>
</g>
<g>
</g>
<g>
</g>
<g>
</g>
</svg>
